#define qt_logo_width 48
#define qt_logo_height 48
static unsigned char qt_logo_bits[] = {
   0x00, 0xaf, 0x03, 0x00, 0x00, 0x00, 0xc0, 0x03, 0xd0, 0x00, 0x00, 0x00,
   0xe0, 0x55, 0x05, 0x34, 0x00, 0x00, 0xf0, 0x00, 0xa8, 0x02, 0x0d, 0x00,
   0xf0, 0xaa, 0x02, 0x54, 0x40, 0x03, 0x70, 0x49, 0x54, 0x41, 0x15, 0x00,
   0xf0, 0x24, 0x49, 0x0a, 0xa0, 0x0a, 0xf0, 0x44, 0x12, 0x52, 0x25, 0x02,
   0xf0, 0x88, 0x48, 0x24, 0x49, 0x04, 0x70, 0x29, 0x03, 0x24, 0x89, 0x04,
   0xf0, 0xc2, 0x01, 0x80, 0x22, 0x09, 0xf0, 0xc8, 0x00, 0x20, 0x43, 0x02,
   0xf0, 0x52, 0x00, 0x40, 0x01, 0x09, 0x70, 0x72, 0xc0, 0x80, 0x41, 0x02,
   0xf0, 0x64, 0x80, 0xc1, 0x01, 0x09, 0xf0, 0x34, 0xa0, 0x41, 0x00, 0x02,
   0xf0, 0x38, 0xc0, 0x41, 0x00, 0x04, 0xf0, 0x32, 0x88, 0x41, 0x00, 0x04,
   0xf0, 0x38, 0x20, 0x83, 0x00, 0x09, 0xf0, 0x32, 0xa0, 0xc1, 0x00, 0x02,
   0xf0, 0x34, 0x40, 0x83, 0x41, 0x04, 0x70, 0x19, 0x90, 0x83, 0x80, 0x04,
   0xf0, 0x34, 0x40, 0x83, 0x41, 0x0a, 0x70, 0x19, 0x48, 0xc3, 0x80, 0x00,
   0xf0, 0x34, 0x20, 0x83, 0x01, 0x05, 0x70, 0x39, 0x80, 0xc1, 0x40, 0x04,
   0xf0, 0x34, 0x50, 0x83, 0x81, 0x08, 0x70, 0x31, 0x90, 0xc1, 0x80, 0x02,
   0xf0, 0x3a, 0xc0, 0x81, 0x41, 0x04, 0xf0, 0x30, 0x90, 0xc1, 0x80, 0x04,
   0xf0, 0x62, 0xc0, 0x81, 0x41, 0x0a, 0x70, 0x6a, 0xc0, 0xa0, 0x01, 0x00,
   0xf0, 0xe8, 0x00, 0x80, 0x01, 0x0a, 0xf0, 0xc2, 0x00, 0x40, 0x01, 0x00,
   0xf0, 0x88, 0x01, 0x10, 0x05, 0x0d, 0xf0, 0x52, 0x06, 0x50, 0x90, 0x00,
   0xf0, 0x84, 0x0c, 0x84, 0x22, 0x05, 0xf0, 0x94, 0x0c, 0x28, 0x44, 0x08,
   0xf0, 0x10, 0x19, 0x40, 0x89, 0x0a, 0xf0, 0x52, 0x1a, 0x10, 0x29, 0x00,
   0xf0, 0x84, 0x68, 0x40, 0x42, 0x05, 0x70, 0x29, 0x89, 0x10, 0x4a, 0x02,
   0xf0, 0x84, 0x24, 0xa2, 0xd0, 0x00, 0x70, 0x91, 0x44, 0x0a, 0x07, 0x00,
   0xf0, 0x24, 0x12, 0x15, 0x00, 0x00, 0x70, 0x89, 0x68, 0x00, 0x00, 0x00,
   0xc0, 0x52, 0x01, 0x00, 0x00, 0x00, 0x80, 0x06, 0x00, 0x00, 0x00, 0x00 };
