/* XPM */
static char * qt_logo_xpm[] = {
"48 48 256 2",
"  	c None",
". 	c #0C481E",
"+ 	c #0E4A1E",
"@ 	c #357729",
"# 	c #549B31",
"$ 	c #59A132",
"% 	c #5DA534",
"& 	c #569E32",
"* 	c #4D932F",
"= 	c #468B2E",
"- 	c #41852C",
"; 	c #155220",
"> 	c #59A133",
", 	c #66B036",
"' 	c #63AC35",
") 	c #579F32",
"! 	c #4E9530",
"~ 	c #478C2E",
"{ 	c #41862C",
"] 	c #4E9430",
"^ 	c #64AE35",
"/ 	c #4F9630",
"( 	c #488D2E",
"_ 	c #42862C",
": 	c #2B6C26",
"< 	c #65AE36",
"[ 	c #5AA233",
"} 	c #509730",
"| 	c #498E2E",
"1 	c #43872D",
"2 	c #40842C",
"3 	c #65AF36",
"4 	c #5BA433",
"5 	c #529831",
"6 	c #4A8F2E",
"7 	c #43882D",
"8 	c #539A31",
"9 	c #58A032",
"0 	c #5BA333",
"a 	c #60A934",
"b 	c #5EA636",
"c 	c #76B84A",
"d 	c #6AB23C",
"e 	c #4B922F",
"f 	c #3B7A30",
"g 	c #82AC78",
"h 	c #A7C4A2",
"i 	c #EFF5EE",
"j 	c #FFFFFF",
"k 	c #FAFCF8",
"l 	c #CCE5BC",
"m 	c #98CA77",
"n 	c #6BB23C",
"o 	c #3D802B",
"p 	c #1E5A26",
"q 	c #CEDDCA",
"r 	c #F7FBF4",
"s 	c #8EC46A",
"t 	c #478D2E",
"u 	c #569441",
"v 	c #A6D18A",
"w 	c #95C874",
"x 	c #73B747",
"y 	c #347629",
"z 	c #235E29",
"A 	c #E4ECE2",
"B 	c #F8FBF6",
"C 	c #87C161",
"D 	c #185722",
"E 	c #5C8D59",
"F 	c #A0CE82",
"G 	c #5BA233",
"H 	c #0D481E",
"I 	c #91B48C",
"J 	c #F7FBF5",
"K 	c #A8C99A",
"L 	c #62925F",
"M 	c #DEE9DC",
"N 	c #F5FAF2",
"O 	c #7FBD57",
"P 	c #5EA634",
"Q 	c #9CBC98",
"R 	c #357829",
"S 	c #195623",
"T 	c #FAFCFA",
"U 	c #94C872",
"V 	c #44882C",
"W 	c #124F20",
"X 	c #DBE8D9",
"Y 	c #C6E2B4",
"Z 	c #498E2F",
"` 	c #EAF1E9",
" .	c #62AD35",
"..	c #669562",
"+.	c #D7EBCB",
"@.	c #1F5E23",
"#.	c #417841",
"$.	c #E1EBDE",
"%.	c #B4D89C",
"&.	c #387B29",
"*.	c #135021",
"=.	c #7DAB71",
"-.	c #195523",
";.	c #E7EEE5",
">.	c #DCE8DB",
",.	c #D6EAC9",
"'.	c #A9D28D",
").	c #7ABB51",
"!.	c #307228",
"~.	c #91C66F",
"{.	c #4B912F",
"].	c #C5DBBC",
"^.	c #155322",
"/.	c #9BCB7B",
"(.	c #276826",
"_.	c #2D6831",
":.	c #7BBB52",
"<.	c #5BA334",
"[.	c #E5F1DF",
"}.	c #3F773F",
"|.	c #74B748",
"1.	c #62AB35",
"2.	c #7DA578",
"3.	c #F4F9F1",
"4.	c #579D34",
"5.	c #1D5927",
"6.	c #9BBB96",
"7.	c #BDDBAD",
"8.	c #9FC986",
"9.	c #A9D092",
"0.	c #81BE59",
"a.	c #165321",
"b.	c #548851",
"c.	c #6DB43F",
"d.	c #65AF35",
"e.	c #6F9C6C",
"f.	c #FEFFFE",
"g.	c #66AE39",
"h.	c #89AE84",
"i.	c #66AF36",
"j.	c #6B9868",
"k.	c #67B138",
"l.	c #649360",
"m.	c #73B44A",
"n.	c #5FA834",
"o.	c #86AC82",
"p.	c #F9FCF7",
"q.	c #578955",
"r.	c #80BC5B",
"s.	c #135020",
"t.	c #558752",
"u.	c #86BF63",
"v.	c #0C491E",
"w.	c #709D6D",
"x.	c #67B037",
"y.	c #0F4D1F",
"z.	c #5E8E5B",
"A.	c #7CB955",
"B.	c #6DB33F",
"C.	c #699665",
"D.	c #72B448",
"E.	c #195822",
"F.	c #4C814B",
"G.	c #63AD36",
"H.	c #749F70",
"I.	c #67AE3B",
"J.	c #1F5F23",
"K.	c #3D743E",
"L.	c #80A97C",
"M.	c #286926",
"N.	c #2C6730",
"O.	c #8EC56B",
"P.	c #9ABB96",
"Q.	c #E7F3DF",
"R.	c #3F822B",
"S.	c #104B1F",
"T.	c #F1F6F0",
"U.	c #ADD594",
"V.	c #BFDEAB",
"W.	c #94B58E",
"X.	c #165322",
"Y.	c #96C975",
"Z.	c #88AE84",
"`.	c #ADD593",
" +	c #1C5A23",
".+	c #457B44",
"++	c #F4F9F0",
"@+	c #6FB542",
"#+	c #65B036",
"$+	c #1C5B23",
"%+	c #487E48",
"&+	c #FDFEFD",
"*+	c #70B543",
"=+	c #0F4C1F",
"-+	c #78A274",
";+	c #CEE6BF",
">+	c #59A134",
",+	c #58993F",
"'+	c #7DBA58",
")+	c #387B2A",
"!+	c #145122",
"~+	c #F9FBF8",
"{+	c #BCDCA7",
"]+	c #3F832C",
"^+	c #E3EBE0",
"/+	c #C8E3B7",
"(+	c #185621",
"_+	c #E3EBE1",
":+	c #BCDDA8",
"<+	c #195722",
"[+	c #558853",
"}+	c #C8DDC1",
"|+	c #79A274",
"1+	c #E9EFE7",
"2+	c #F2F8EE",
"3+	c #71B645",
"4+	c #377A2A",
"5+	c #8EB18A",
"6+	c #98CA78",
"7+	c #61AA35",
"8+	c #266725",
"9+	c #4D824B",
"0+	c #E3F1DB",
"a+	c #85C05E",
"b+	c #4A8F2F",
"c+	c #1A5824",
"d+	c #98B993",
"e+	c #E9F4E3",
"f+	c #589E37",
"g+	c #7CBA57",
"h+	c #316D32",
"i+	c #92B58D",
"j+	c #D9EBCD",
"k+	c #D5E3D2",
"l+	c #739E6F",
"m+	c #BADBA4",
"n+	c #79B94F",
"o+	c #69B13A",
"p+	c #29642E",
"q+	c #A9D38E",
"r+	c #5CA533",
"s+	c #75A070",
"t+	c #205F24",
"u+	c #7CA676",
"v+	c #EBF1EB",
"w+	c #A7D18B",
"x+	c #4C922F",
"y+	c #5EA734",
"z+	c #589C36",
"A+	c #76B452",
"B+	c #80BE59",
"C+	c #509630",
"D+	c #559C31",
"E+	c #468B2D",
"F+	c #60AA35",
"G+	c #559D32",
"                . + @ # $ % & * = -                                                             ",
"            . . ; > , , , , , , , , , ' ) ! ~ {                                                 ",
"          . . . ] , , , , , , , , , , , , , , , , ^ $ / ( _                                     ",
"        . . . : , , , , , , , , , , , , , , , , , , , , , , , < [ } | 1                         ",
"        . . . 2 , , , , , , , , , , , , , , , , , , , , , , , , , , , , , 3 4 5 6 7             ",
"        . . . 8 , , , , , , , , , , , , , , , , , , , , , , , , , , , , , , , , , , , 9         ",
"        . . . 0 , , , , , , , , , , , , , , , , , , , , , , , , , , , , , , , , , , , 9         ",
"        . . . 0 , , , , , , , , , , , , , , , , , , , , , , , , , , , , , , , , , , , 9         ",
"        . . . 0 , , , , , , , , , , , a b c d , , , , , , , , , , , , , , , , , , , , 9         ",
"        . . . 0 , , , , , , , , e f g h i j k l m n , , , , , , , , , , , , , , , , , 9         ",
"        . . . 0 , , , , , , , o p q j j j j j j j r s , , , , , t u v w x , , , , , , 9         ",
"        . . . 0 , , , , , , y z A j j j j j j j j j B C , , , , D E j j F , , , , , , 9         ",
"        . . . 0 , , , , , G H I j j j j J K L M j j j N O , , P . Q j j F , , , , , , 9         ",
"        . . . 0 , , , , , R S T j j j j U , V W X j j j Y , , Z H ` j j F , , , , , , 9         ",
"        . . . 0 , , , ,  .W ..j j j j +., , , @.#.j j j r n , y z j j j F , , , , , , 9         ",
"        . . . 0 , , , , V + $.j j j j %., , , &.*.j j j j =.-.;.>.j j j ,.%.'.)., , , 9         ",
"        . . . 0 , , , , !.p j j j j j ~., , , {.. q j j j ].^.j j j j j j j j /., , , 9         ",
"        . . . 0 , , , , (._.j j j j j :., , , <.. I j j j [.^.j j j j j j j j /., , , 9         ",
"        . . . 0 , , , , @.}.j j j j j |., , , 1.. 2.j j j 3.4.5.6.j j j 7.8.9.0., , , 9         ",
"        . . . 0 , , , , a.b.j j j j j c., , , d.. e.j j j f.g.. h.j j j F , , , , , , 9         ",
"        . . . 0 , , , i.+ j.j j j j j k., , , , + l.j j j j m.. h.j j j F , , , , , , 9         ",
"        . . . 0 , , , n.. o.j j j j p., , , , , W q.j j j j r.. h.j j j F , , , , , , 9         ",
"        . . . 0 , , , n.. o.j j j j p., , , , , s.t.j j j j u.. h.j j j F , , , , , , 9         ",
"        . . . 0 , , , d.v.w.j j j j f.x., , , , y.z.j j j j A.. h.j j j F , , , , , , 9         ",
"        . . . 0 , , , , W z.j j j j j B., , , , H C.j j j j D.. h.j j j F , , , , , , 9         ",
"        . . . 0 , , , , E.F.j j j j j |., , , G.. H.j j j j I.. h.j j j F , , , , , , 9         ",
"        . . . 0 , , , , J.K.j j j j j )., , , a . L.j j j p.' . h.j j j F , , , , , , 9         ",
"        . . . 0 , , , , M.N.j j j j j O., , , $ . P.j j j Q.' . h.j j j F , , , , , , 9         ",
"        . . . 0 , , , , R.S.T.j j j j U., , , t . X j j j V.' . h.j j j F , , , , , , 9         ",
"        . . . 0 , , , , G . W.j j j j l , , , R X.j j j j Y.G.. Z.j j j `., , , , , , 9         ",
"        . . . 0 , , , , ,  +.+j j j j ++@+, #+$+%+j j j &+*+, =+-+j j j ;+>+,+'+, , , 9         ",
"        . . . 0 , , , , , )+!+~+j j j j {+, ]+!+^+j j j /+, , (+E j j j j _+j :+, , , 9         ",
"        . . . 0 , , , , , 1.<+[+j j j j j }+|+1+j j j 2+3+, , 4+p T j j j j j :+, , , 9         ",
"        . . . 0 , , , , , , & y.5+j j j j j j j j j j 6+, , , 7+8+9+T.j f.0+{+a+, , , 9         ",
"        . . . 0 , , , , , , , b+c+d+j j j j j j j e+O., , , , , , n.f+g+x , , , , , , 9         ",
"        . . . 0 , , , , , , , , ' { h+i+j j j j j+n , , , , , , , , , , , , , , , , , 9         ",
"        . . . 0 , , , , , , , , , , ( v.k+j j j ++n , , , , , , , , , , , , , , , , , )         ",
"        . . . 0 , , , , , , , , , , 7++ l+j j j j m+n+o+, , , , , , , , , , , , , , , }         ",
"        . . . 0 , , , , , , , , , , , (.p+j j j j j j q+, , , , , , , , , , , , , , , |         ",
"        . . . 0 , , , , , , , , , , , r+s.s+j j j j j q+, , , , , , , , , , , , , , 3           ",
"        . . . 0 , , , , , , , , , , , , 5 t+u+v+j j j w+, , , , , , , , , , , , , , x+          ",
"        . . . 0 , , , , , , , , , , , , , , y+z+A+B+*+, , , , , , , , , , , , , , C+            ",
"        . . . 0 , , , , , , , , , , , , , , , , , , , , , , , , , , , , , n.# x+                ",
"        . . . 0 , , , , , , , , , , , , , , , , , , , , , , , a D+x+=                           ",
"        . . . 0 , , , , , , , , , , , , , , , , , a D+x+E+                                      ",
"        . . . 0 , , , , , , , , , , , a D+x+E+                                                  ",
"            . 0 , , , , , F+D+x+E+                                                              ",
"              & G+* E+                                                                          "};
